<svg fill="#000000" viewBox="0 0 22.773 22.773" xmlns="http://www.w3.org/2000/svg">
<path d="m15.769 0h0.162c0.13 1.606-0.483 2.806-1.228 3.675-0.731 0.863-1.732 1.7-3.351 1.573-0.108-1.583 0.506-2.694 1.25-3.561 0.69-0.808 1.955-1.527 3.167-1.687z"/>
<path d="m20.67 16.716v0.045c-0.455 1.378-1.104 2.559-1.896 3.655-0.723 0.995-1.609 2.334-3.191 2.334-1.367 0-2.275-0.879-3.676-0.903-1.482-0.024-2.297 0.735-3.652 0.926h-0.462c-0.995-0.144-1.798-0.932-2.383-1.642-1.725-2.098-3.058-4.808-3.306-8.276v-1.019c0.105-2.482 1.311-4.5 2.914-5.478 0.846-0.52 2.009-0.963 3.304-0.765 0.555 0.086 1.122 0.276 1.619 0.464 0.471 0.181 1.06 0.502 1.618 0.485 0.378-0.011 0.754-0.208 1.135-0.347 1.116-0.403 2.21-0.865 3.652-0.648 1.733 0.262 2.963 1.032 3.723 2.22-1.466 0.933-2.625 2.339-2.427 4.74 0.176 2.181 1.444 3.457 3.028 4.209z"/>
</svg>