<svg viewBox="0 0 70 70" xmlns="http://www.w3.org/2000/svg">
<path d="m10.367 56.711c-0.17565-0.002218-0.45991-0.093142-0.63168-0.20233-0.20865-0.13257 6.6804-7.1902 20.757-21.266 18.644-18.642 21.169-21.077 21.924-21.144 0.53611-0.04835 0.97507 0.06997 1.1811 0.31828 0.40878 0.49256 6.9797 40.925 6.7823 41.734-0.19115 0.405-0.48364 0.56764-0.80522 0.73871-14.096 7.4984-22.474 13.111-24.616 13.111-0.42157 0-1.3998-0.73166-2.0964-1.1037-7.5222-4.0174 0.49504 0.33017-22.495-12.186z" fill="#fdc92b" stroke-width=".96564"/>
<path d="m9.7456 55.059c-0.014082-0.42702 1.9889-12.724 4.2655-27.34 2.4475-15.712 4.2875-26.807 4.5022-27.148 0.44357-0.70257 1.6285-0.77117 2.2068-0.12777 0.22104 0.24593 2.3517 4.0642 4.7348 8.4851 2.3831 4.4209 4.4397 8.0736 4.5702 8.117 0.13048 0.04348 1.0084-1.4048 1.9509-3.2187 0.94248-1.8137 1.885-3.4399 2.0944-3.6137 0.50728-0.42103 1.6205-0.40176 2.0378 0.03526 0.18454 0.19322 1.7881 3.1049 3.5635 6.4703l3.2279 6.1191-3.1327 3.1404c-2.4604 2.4664-3.1979 3.4873-3.4364 3.2386-0.16704-0.1742-1.591-3.176-3.1642-6.1633-1.5732-2.9874-3.0337-6.0154-3.1359-6.0786-0.10224-0.0632-3.6473 7.1672-7.9873 15.417-10.728 20.394-12.227 24.807-12.257 23.903z" fill="#fa9a0f" stroke-width=".96566"/>
<path d="m10.854 53.65c4.5487-11.219 19.052-36.833 19.208-36.736 0.10767 0.06653 1.205 2.5285 2.3604 4.7395 1.1554 2.211 2.5499 4.8181 3.0988 5.7936l0.99795 1.7735-13.457 13.428-13.313 13.725z" fill="#ee7b0a" stroke-width=".96564"/>
</svg>
