<svg viewBox="0 0 70 70" xmlns="http://www.w3.org/2000/svg">
<path d="m12.79 54.58c-0.15841-2e-3 -0.41477-0.084-0.56968-0.18247-0.18817-0.11956 6.0247-6.4845 18.72-19.179 16.814-16.812 19.091-19.008 19.772-19.069 0.48349-0.0436 0.87936 0.0631 1.0652 0.28704 0.36866 0.44421 6.2946 36.908 6.1166 37.638-0.17239 0.36525-0.43617 0.51192-0.72618 0.6662-12.712 6.7624-20.268 11.824-22.2 11.824-0.38019 0-1.2624-0.65985-1.8906-0.99537-6.7839-3.6231 0.44645 0.29776-20.287-10.99z" fill="#fdc92b" stroke-width=".87086"/>
<path d="m12.23 53.09c-0.0127-0.38509 1.7937-11.475 3.8468-24.655 2.2073-14.169 3.8667-24.175 4.0603-24.482 0.40003-0.63358 1.4687-0.69545 1.9902-0.11522 0.19934 0.22178 2.1209 3.6651 4.2701 7.6519s4.0039 7.2808 4.1216 7.32c0.11767 0.0392 0.90938-1.2669 1.7594-2.9026 0.84997-1.6356 1.7-3.1021 1.8888-3.2589 0.45749-0.37969 1.4614-0.36231 1.8378 0.0318 0.16643 0.17425 1.6126 2.8 3.2137 5.835l2.9111 5.5182-2.8252 2.832c-2.2189 2.2242-2.884 3.1449-3.0991 2.9206-0.15064-0.15709-1.4348-2.8641-2.8536-5.5581-1.4188-2.6941-2.7359-5.4247-2.8281-5.4817s-3.2893 6.4634-7.2033 13.903c-9.6749 18.391-11.027 22.371-11.054 21.556z" fill="#fa9a0f" stroke-width=".87086"/>
<path d="m13.23 51.82c4.1022-10.118 17.182-33.218 17.323-33.13 0.0971 0.06 1.0867 2.2803 2.1287 4.2743s2.2996 4.3452 2.7946 5.2249l0.9 1.5994-12.136 12.11-12.006 12.378z" fill="#ee7b0a" stroke-width=".87086"/>
</svg>
