<svg viewBox="0 0 512 512" xmlns="http://www.w3.org/2000/svg">
<path d="m335.78 160h-159.57c-8.8083 0-15.956 7.168-15.956 16.003v320c0 8.8287 7.1477 16.001 15.956 16.001h159.57c8.8062 0 15.954-7.1723 15.954-16.001v-320c0-8.8351-7.1477-16.003-15.955-16.003z" fill="#ffc107" stroke-width="1.07"/>
<path d="m176.22 320h-159.57c-8.8126 0-15.96 7.1669-15.96 16v160c0 8.8287 7.1477 16.001 15.96 16.001h159.57c8.8105 0 15.958-7.1723 15.958-16.001v-160c0-8.8329-7.1477-16-15.958-16z" fill="#ffc107" stroke-width="1.07"/>
<path d="m495.35 0h-159.57c-8.8126 0-15.96 7.1669-15.96 16.005v479.99c0 8.8287 7.1477 16.001 15.96 16.001h159.57c8.8105 0 15.958-7.1723 15.958-16.001v-479.99c0.00107-8.8383-7.1466-16.005-15.958-16.005z" fill="#ffa000" stroke-width="1.07"/>
</svg>