<svg viewBox="-27 0 310 310" xmlns="http://www.w3.org/2000/svg">
<path d="m18.432 180.97 90.484-90.484c11.729-11.543 18.991-27.741 18.991-45.428 0-17.501-7.0749-33.513-18.432-45.056l-90.484 90.484c-11.729 11.543-18.991 27.741-18.991 45.428 0 17.687 7.0749 33.513 18.432 45.056zm219.14-52.876-90.484 90.484c-11.729 11.543-18.991 27.741-18.991 45.428 0 17.501 7.0749 33.513 18.432 45.056l90.484-90.484c11.729-11.543 18.991-27.741 18.991-45.428s-7.0749-33.513-18.432-45.056zm-0.55854-37.423c11.729-11.543 18.991-27.741 18.991-45.428 0-17.501-7.0749-33.513-18.432-45.056l-218.58 218.39c-11.729 11.729-18.991 27.741-18.991 45.615 0 17.501 7.0749 33.513 18.432 45.056l218.58-218.58z" fill="#1292EE"></path>
</svg>
