<svg viewBox="0 0 392.53 392.53" xmlns="http://www.w3.org/2000/svg">
<path d="m359.82 147.33h-327.11c-6.012 0-10.925 4.848-10.925 10.925v75.96c0 6.012 4.848 10.925 10.925 10.925h327.11c6.012 0 10.925-4.848 10.925-10.925v-75.96c0-6.012-4.913-10.925-10.925-10.925z" fill="#FFC10D"/>
<g fill="#fff">
<path d="m104.4 125.54c2.521-13.446 5.689-26.117 9.438-37.818-15.903-2.004-31.806-4.59-47.774-7.628-11.895 13.382-21.786 28.574-29.285 45.446h67.621z"/>
<path d="m185.34 92.768c-16.485-0.259-32.84-1.164-49.196-2.651-3.685 10.796-6.982 22.691-9.503 35.362h58.828v-32.776h-0.129v0.065z"/>
<path d="m85.463 61.608c12.024 2.069 24.113 3.814 36.267 5.172 6.206-14.287 13.317-26.57 21.269-36.655-21.14 6.788-40.599 17.519-57.536 31.483z"/>
<path d="m185.34 23.79c-15.127 5.301-29.349 21.463-40.663 45.253 13.511 1.099 27.022 1.681 40.663 1.939v-47.192z"/>
<path d="m278.69 87.79c3.814 11.636 6.853 24.242 9.438 37.818h67.62c-7.499-16.873-17.39-32.065-29.285-45.446-15.902 3.103-31.805 5.689-47.773 7.628z"/>
<path d="m307.07 61.608c-16.937-13.899-36.396-24.63-57.471-31.354 7.952 10.02 15.063 22.303 21.269 36.655 12.089-1.551 24.177-3.232 36.202-5.301z"/>
<path d="m256.39 90.182c-16.356 1.487-32.84 2.392-49.196 2.651v32.776h58.828c-2.586-12.736-5.818-24.631-9.632-35.427z"/>
<path d="m207.19 70.982c13.511-0.259 27.152-0.84 40.663-1.939-11.313-23.725-25.471-39.952-40.663-45.253v47.192z"/>
<path d="m288.13 266.99c-2.521 13.447-5.689 26.117-9.438 37.818 15.903 2.004 31.806 4.59 47.774 7.628 11.895-13.382 21.786-28.574 29.285-45.446h-67.621z"/>
<path d="m207.19 368.74c15.127-5.301 29.349-21.463 40.663-45.253-13.511-1.099-27.022-1.681-40.663-1.939v47.192z"/>
<path d="m207.19 299.77c16.485 0.259 32.84 1.164 49.196 2.65 3.685-10.796 6.982-22.691 9.503-35.362h-58.828v32.776h0.129v-0.064z"/>
<path d="m307.07 330.92c-12.024-2.069-24.113-3.814-36.267-5.172-6.206 14.287-13.317 26.57-21.269 36.655 21.14-6.788 40.598-17.519 57.536-31.483z"/>
<path d="m185.34 321.55c-13.511 0.259-27.152 0.84-40.663 1.939 11.313 23.725 25.471 39.952 40.663 45.253v-47.192z"/>
<path d="m36.848 266.99c7.499 16.873 17.39 32.065 29.285 45.447 15.838-3.103 31.741-5.689 47.774-7.628-3.814-11.636-6.853-24.242-9.438-37.689h-67.62v-0.13z"/>
<path d="m136.14 302.35c16.356-1.487 32.84-2.392 49.196-2.65v-32.776h-58.828c2.586 12.735 5.818 24.63 9.632 35.426z"/>
<path d="m121.73 325.75c-12.024 1.422-24.178 3.103-36.267 5.172 16.937 13.899 36.396 24.63 57.471 31.354-7.951-9.892-15.127-22.24-21.204-36.526z"/>
</g>
<g fill="#194F82">
<path d="m383.03 135.3c-27.41-82.101-103.18-135.3-186.76-135.3-83.847 0-159.03 53.139-186.44 134.92-6.012 5.948-9.826 14.222-9.826 23.338v75.96c0 8.792 3.556 16.873 9.244 22.82 29.608 82.812 103.05 135.5 187.02 135.5 83.846 0 159.74-53.85 186.44-134.92 6.012-5.947 9.826-14.222 9.826-23.337v-75.96c1e-3 -9.051-3.619-17.132-9.502-23.015zm-27.345-9.762h-67.62c-2.521-13.446-5.689-26.117-9.438-37.818 15.903-2.004 31.806-4.59 47.774-7.628 11.894 13.382 21.849 28.638 29.284 45.446zm-48.614-63.935c-12.024 2.069-24.113 3.814-36.267 5.172-6.077-14.287-13.317-26.57-21.269-36.655 21.14 6.788 40.598 17.519 57.536 31.483zm-99.879-37.818c15.127 5.301 29.349 21.463 40.663 45.253-13.511 1.099-27.152 1.681-40.663 1.939v-47.192zm-0.129 68.978h0.065c16.485-0.259 32.84-1.164 49.196-2.651 3.685 10.796 6.982 22.691 9.503 35.362h-58.828v-32.711h0.064zm-21.722-68.978v47.192c-13.511-0.259-27.152-0.84-40.663-1.939 11.314-23.79 25.536-39.887 40.663-45.253zm-0.064 68.978v32.776h-58.699c2.521-12.671 5.818-24.566 9.503-35.362 16.355 1.487 32.84 2.392 49.196 2.586zm-42.344-62.643c-7.952 10.02-15.063 22.303-21.269 36.655-12.024-1.422-24.178-3.103-36.267-5.172 17.003-13.964 36.462-24.695 57.536-31.483zm-76.8 49.972c15.838 3.103 31.741 5.689 47.774 7.628-3.814 11.636-6.853 24.242-9.438 37.818h-67.62c7.434-16.808 17.389-32.064 29.284-45.446zm-29.285 186.89h67.62c2.521 13.447 5.689 26.117 9.438 37.689-15.903 2.004-31.806 4.59-47.774 7.628-11.894-13.252-21.849-28.509-29.284-45.317zm48.615 63.935c12.024-2.069 24.113-3.814 36.267-5.172 6.206 14.287 13.317 26.57 21.269 36.655-21.14-6.788-40.599-17.519-57.536-31.483zm99.878 37.818c-15.127-5.301-29.349-21.463-40.663-45.253 13.511-1.099 27.152-1.681 40.663-1.939v47.192zm0.13-68.977h-0.065c-16.485 0.259-32.84 1.164-49.196 2.65-3.685-10.796-6.982-22.691-9.503-35.362h58.828v32.711h-0.064zm21.721 68.977v-47.192c13.511 0.259 27.152 0.84 40.663 1.939-11.314 23.791-25.536 39.888-40.663 45.253zm0.065-68.977v-32.776h58.699c-2.521 12.671-5.818 24.566-9.503 35.362-16.356-1.487-32.841-2.392-49.196-2.586zm42.343 62.642c7.952-10.02 15.063-22.303 21.269-36.655 12.024 1.422 24.178 3.103 36.267 5.172-17.003 13.964-36.461 24.695-57.536 31.483zm76.8-49.972c-15.838-3.103-31.741-5.689-47.774-7.628 3.814-11.636 6.853-24.242 9.438-37.818h67.62c-7.434 16.808-17.389 32.065-29.284 45.446zm33.422-67.232h-327.11c-6.012 0-10.925-4.848-10.925-10.925v-75.96c0-6.012 4.848-10.925 10.925-10.925h327.11c6.012 0 10.925 4.848 10.925 10.925v75.96h0.065c-0.065 6.012-4.913 10.925-10.99 10.925z"/>
<polygon points="120.76 202.08 109.9 168.21 94.836 168.21 83.911 202.08 72.986 168.21 56.889 168.21 75.895 224.26 92.057 224.26 102.4 193.74 112.68 224.26 128.9 224.26 147.91 168.21 131.68 168.21"/>
<polygon points="214.56 202.15 203.7 168.28 188.64 168.28 177.71 202.15 166.85 168.28 150.69 168.28 169.7 224.26 185.86 224.26 196.27 193.81 206.48 224.32 222.71 224.32 241.71 168.28 225.49 168.28"/>
<polygon points="308.49 202.08 297.57 168.21 282.5 168.21 271.58 202.08 260.72 168.21 244.56 168.21 263.56 224.26 279.72 224.26 290.07 193.74 300.35 224.26 316.57 224.26 335.58 168.21 319.35 168.21"/>
</g>
<g fill="#56ACE0">
<path d="m270.68 326.14c0.129-0.065 0.323-0.259 0.453-0.323h-0.323c-0.066 0.129-0.066 0.194-0.13 0.323z"/>
<path d="m121.41 325.75c0.129 0.065 0.323 0.259 0.453 0.323-0.065-0.129-0.065-0.259-0.129-0.388-0.13 0.065-0.259 0.065-0.324 0.065z"/>
<path d="m271.13 66.78c-0.129-0.065-0.323-0.259-0.453-0.323 0.065 0.129 0.065 0.259 0.129 0.388 0.13-0.065 0.26-0.065 0.324-0.065z"/>
<path d="m121.86 66.392c-0.129 0.065-0.323 0.259-0.453 0.323h0.323c0.065-0.129 0.065-0.194 0.13-0.323z"/>
<path d="m70.723 266.99c7.24 14.933 16.743 28.38 28.057 39.887 5.042-0.776 10.02-1.552 15.127-2.133-3.814-11.636-6.853-24.242-9.438-37.689h-33.746v-0.065z"/>
<path d="m70.723 266.99"/>
<path d="m185.28 266.99h-58.699c2.521 12.671 5.818 24.566 9.503 35.362 16.356-1.487 32.84-2.392 49.196-2.65v-32.712z"/>
<path d="m288.13 267.06v-0.065c-2.521 13.447-5.689 26.117-9.438 37.818 5.042 0.646 10.02 1.422 15.127 2.133 11.313-11.507 20.816-24.954 28.057-39.887h-33.746z"/>
<path d="m144.74 69.107c13.511 1.099 27.152 1.681 40.663 1.939v-26.892c-10.279 0.84-20.234 2.844-29.802 5.947-3.879 5.624-7.564 11.895-10.861 19.006z"/>
<path d="m207.19 348.44c10.279-0.84 20.234-2.844 29.802-5.947 3.814-5.624 7.499-11.895 10.796-19.006-13.511-1.099-27.152-1.681-40.663-1.939v26.893h0.065z"/>
<path d="m207.19 299.77c16.485 0.259 32.84 1.164 49.196 2.65 3.814-10.796 6.982-22.691 9.568-35.362h-58.828v32.711h0.064z"/>
<path d="m207.26 92.768v32.776h58.699c-2.521-12.671-5.818-24.566-9.503-35.362-16.356 1.487-32.841 2.392-49.196 2.586z"/>
<path d="m236.99 50.036c-9.568-3.103-19.523-5.107-29.802-5.947v26.893c13.511-0.259 27.152-0.84 40.663-1.939-3.362-6.982-7.047-13.318-10.861-19.007z"/>
<path d="m155.54 342.5c9.568 3.103 19.523 5.107 29.802 5.947v-26.893c-13.576 0.259-27.152 0.84-40.663 1.939 3.362 6.983 7.112 13.318 10.861 19.007z"/>
<path d="m321.81 125.61v-0.065c-7.24-14.933-16.743-28.38-28.057-39.887-5.042 0.776-10.02 1.552-15.127 2.133 3.814 11.636 6.853 24.242 9.438 37.818h33.746z"/>
<path d="m104.4 125.54c2.521-13.446 5.689-26.117 9.438-37.818-5.042-0.646-10.02-1.422-15.127-2.133-11.313 11.507-20.816 24.954-28.057 39.887h33.745c1e-3 0 1e-3 0.064 1e-3 0.064z"/>
<path d="m126.58 125.54h58.828v-32.775c-16.485-0.259-32.84-1.164-49.196-2.651-3.879 10.861-7.111 22.756-9.632 35.426z"/>
</g>
</svg>