<svg viewBox="0 0 44 44" xmlns="http://www.w3.org/2000/svg">
<path d="m23.65 24.898c-0.998-1.609-1.722-2.943-2.725-5.455-1.696-4.243 10.315-8.077 5.445-15.444 2.111 5.089-7.577 8.235-8.477 12.473-0.823 3.898 5.752 8.426 5.757 8.426z" fill="#F44336"/>
<path d="m23.878 17.27c-0.192 2.516 2.229 3.857 2.299 5.695 0.056 1.496-1.447 2.743-1.447 2.743s2.728-0.536 3.579-2.818c0.945-2.534-1.834-4.269-1.548-6.298 0.267-1.938 6.031-5.543 6.031-5.543s-8.481 0.562-8.914 6.221z" fill="#F44336"/>
<g fill="#1565C0">
<path d="m32.084 25.055c1.754-0.394 3.233 0.723 3.233 2.01 0 2.901-4.021 5.643-4.021 5.643s6.225-0.742 6.225-5.505c0-3.15-3.057-3.937-5.437-2.148zm-2.955 2.34s1.941-1.383 2.458-1.902c-4.763 1.011-15.638 1.147-15.638 0.269 0-0.809 3.507-1.638 3.507-1.638s-7.773-0.112-7.773 2.181c0 2.39 10.175 2.561 17.446 1.09z"/>
<path d="m27.935 29.571c-4.509 1.499-12.814 1.02-10.354-0.993-1.198 0-2.974 0.963-2.974 1.889 0 1.857 8.982 3.291 15.63 0.572l-2.302-1.468z"/>
<path d="m18.686 32.739c-1.636 0-2.695 1.054-2.695 1.822 0 2.391 9.76 2.632 13.627 0.205l-2.458-1.632c-2.889 1.27-10.146 1.445-8.474-0.395z"/>
<path d="M36.281,36.632c0-0.936-1.055-1.377-1.433-1.588c2.228,5.373-22.317,4.956-22.317,1.784c0-0.721,1.807-1.427,3.477-1.093l-1.42-0.839C11.26,34.374,9,35.837,9,37.017C9,42.52,36.281,42.255,36.281,36.632z"/>
<path d="M39,38.604c-4.146,4.095-14.659,5.587-25.231,3.057C24.341,46.164,38.95,43.628,39,38.604z"/>
</g>
</svg>