<svg viewBox="0 0 48 48" xmlns="http://www.w3.org/2000/svg">
<path d="m0 48v-48h48v48z" fill="#ffd600" stroke-width="1.3333"/>
<path d="m31.384 35.929c0.92267 1.4987 1.9253 2.9347 4.0493 2.9347 1.784 0 2.72-0.88667 2.72-2.1133 0-1.468-0.968-1.9893-2.9307-2.844l-1.076-0.45867c-3.1053-1.3173-5.1707-2.968-5.1707-6.4547 0-3.2133 2.46-5.6587 6.304-5.6587 2.7373 0 4.704 0.948 6.1227 3.4307l-3.352 2.1427c-0.73733-1.3173-1.5347-1.836-2.7707-1.836-1.2613 0-2.06 0.796-2.06 1.836 0 1.2853 0.8 1.8053 2.6467 2.6013l1.076 0.45867c3.66 1.5587 5.724 3.1507 5.724 6.7293 0 3.856-3.0453 5.9693-7.1333 5.9693-3.9987 0-6.2693-2.0067-7.5333-4.4907zm-15.448 0.10934c0.67467 1.208 1.7 2.1373 3.1747 2.1373 1.4107 0 2.2227-0.55733 2.2227-2.724v-14.119h4.444v14.801c0 4.4893-2.604 6.532-6.4067 6.532-3.436 0-5.916-2.328-6.9267-4.4907z" fill="#000001" stroke-width="1.3333"/>
</svg>