<?xml version="1.0" encoding="UTF-8"?>
<svg width="800px" height="800px" version="1.1" viewBox="0 0 64 64" xmlns="http://www.w3.org/2000/svg">
<path d="m4.3927 23.157 23.389-9.7991 16.383 38.466-23.424 9.938z" clip-rule="evenodd" fill="#2a2941" fill-rule="evenodd" stroke-width="1.3894"/>
<path d="m7.4253 17.423 23.39-9.7991 16.383 38.571-23.459 9.938z" clip-rule="evenodd" fill="#fff" fill-rule="evenodd" stroke-width="1.3894"/>
<path d="m31.407 6.1648-25.481 10.668 17.22 40.69 25.516-10.807zm-22.518 11.884 21.298-8.9304 15.512 36.416-21.403 9.0346-15.442-36.52z" clip-rule="evenodd" fill="#2a2941" fill-rule="evenodd" stroke-width="1.3894"/>
<path d="m24.296 19.821c-0.94118 0.20855-1.8126 0.55604-2.6492 1.0425l0.3486 1.8417c-0.6972 0.5213-1.2898 1.1467-1.7429 1.8764l-1.8475-0.24315c-0.41821 0.83392-0.6972 1.7722-0.83656 2.7103l1.6382 0.83406c-0.03474 0.86866 0.10462 1.7026 0.41835 2.5365l-1.3247 1.3205c0.41835 0.86866 0.94118 1.6332 1.6384 2.3281l1.708-0.72972c0.66233 0.55604 1.4291 0.973 2.231 1.251l0.24398 1.8417c0.94118 0.24328 1.8822 0.27802 2.8234 0.20841l0.4881-1.8068c0.83656-0.17381 1.6382-0.48657 2.3703-0.93826l1.6382 0.973c0.73208-0.59078 1.3943-1.2858 1.9172-2.0849l-1.1504-1.4942c0.41835-0.76445 0.66233-1.5985 0.73208-2.4324l1.7777-0.62551c0.034874-0.93813-0.1395-1.8764-0.45322-2.7798h-1.8822c-0.3486-0.79918-0.83656-1.4942-1.464-2.1197l0.62746-1.7374c-0.73208-0.59064-1.5686-1.0772-2.4749-1.39l-1.22 1.4247c-0.83656-0.20841-1.708-0.27788-2.5794-0.17368zm0 3.7877c1.22-0.48657 2.5447-0.4517 3.7646 0.03474 1.1852 0.52116 2.1612 1.4594 2.6492 2.6408 0.24412 0.59078 0.3486 1.2161 0.3486 1.8764 0 0.62551-0.13936 1.2858-0.41821 1.8417-0.24398 0.59078-0.62746 1.1119-1.0807 1.5638-0.45308 0.4517-1.0108 0.79918-1.6034 1.0423-1.22 0.48657-2.5447 0.45183-3.7646-0.03473-1.1852-0.52117-2.1263-1.4594-2.6144-2.6756-0.48796-1.2161-0.45308-2.5366 0.03487-3.7528 0.52283-1.1814 1.464-2.1197 2.6841-2.6061z" clip-rule="evenodd" fill="#fec34e" fill-rule="evenodd" stroke-width="1.3894"/>
<path d="m24.994 19.369-0.31373-0.48643-0.55771 0.1042c-1.0109 0.24315-1.987 0.62551-2.8932 1.1467l-0.4881 0.27802 0.38348 1.8764c-0.45322 0.41696-0.87143 0.86866-1.22 1.3552l-1.952-0.20855-0.24412 0.48643c-0.45308 0.93826-0.76681 1.946-0.90617 2.9536v0.55604l1.7429 0.90339c0.03487 0.59078 0.13936 1.2163 0.27885 1.8069l-1.3944 1.39 0.24412 0.5213c0.45308 0.93813 1.0457 1.8069 1.7777 2.5365l0.38334 0.4171 1.7777-0.79932c0.4881 0.38236 1.0458 0.66024 1.6384 0.90353l0.24398 1.9111 0.55771 0.13908c1.0109 0.24315 2.0566 0.31262 3.1023 0.20841h0.55785l0.48796-1.8764c0.59258-0.17382 1.1852-0.38223 1.708-0.69498l1.6384 1.0077 0.45308-0.34749c0.80169-0.66024 1.4989-1.4247 2.0217-2.2934l0.31373-0.48657-1.1852-1.6331c0.24398-0.55604 0.41835-1.1467 0.52283-1.7374l1.8475-0.66024v-0.59064c0.03487-1.0425-0.13936-2.0502-0.48796-3.0579l-0.17437-0.5559h-1.952c-0.27885-0.55604-0.62746-1.0425-1.0457-1.4942l0.62732-1.8417-0.45308-0.34749c-0.83656-0.66024-1.7429-1.1467-2.7189-1.529l-0.52283-0.20841-1.2549 1.4594c-0.59258-0.1042-1.22-0.17381-1.8475-0.13894l-0.73194-1.1468zm-0.6972 0.4517c-0.94118 0.20855-1.8126 0.55604-2.6492 1.0425l0.3486 1.8417c-0.6972 0.52117-1.2898 1.1467-1.7429 1.8764l-1.8475-0.20841c-0.41821 0.83392-0.6972 1.7373-0.83656 2.6756l1.6382 0.86866c-0.03474 0.86879 0.10462 1.7027 0.41835 2.5366l-1.3247 1.3205c0.41835 0.86866 0.94118 1.6331 1.6384 2.3281l1.708-0.72972c0.66233 0.55604 1.4291 0.973 2.231 1.251l0.24398 1.8417c0.94118 0.24315 1.8822 0.27788 2.8234 0.20841l0.4881-1.8069c0.83656-0.17368 1.6731-0.48643 2.3703-0.93813l1.6382 0.97286c0.73194-0.59064 1.3943-1.2856 1.9171-2.0848l-1.1503-1.4942c0.41835-0.76459 0.66233-1.5985 0.73208-2.4324l1.7777-0.62551c0.03487-0.93813-0.1395-1.8764-0.45322-2.7798h-1.8822c-0.3486-0.79932-0.83656-1.4943-1.464-2.0849l0.62746-1.7722c-0.76695-0.59078-1.6035-1.0425-2.4749-1.39l-1.22 1.4247c-0.83656-0.20841-1.708-0.27802-2.5794-0.17368zm0 3.7875c1.22-0.48643 2.5447-0.4517 3.7646 0.03487 1.1852 0.52116 2.1612 1.4594 2.6492 2.6408 0.24412 0.59064 0.3486 1.2161 0.3486 1.8764 0 0.62551-0.13936 1.2856-0.41821 1.8417-0.24398 0.59078-0.62746 1.1119-1.0807 1.5636-0.45308 0.4517-1.0108 0.79918-1.6034 1.0425s-1.22 0.38222-1.8824 0.34749c-0.62746 0-1.2896-0.13894-1.8822-0.38222-0.59258-0.24328-1.1156-0.62551-1.5686-1.0772-0.45322-0.4517-0.80169-1.0077-1.0458-1.5984-0.24398-0.59078-0.38334-1.251-0.38334-1.8764 0-0.66024 0.13936-1.2858 0.38334-1.8765 0.24412-0.59064 0.62746-1.1467 1.0807-1.5636 0.45308-0.4517 1.0108-0.79919 1.6034-1.0425v0.06947zm0.31373 0.79932c1.0109-0.4171 2.1263-0.38222 3.1024 0.03473 1.0108 0.41696 1.7777 1.2161 2.196 2.2239 0.2091 0.48643 0.31373 1.0077 0.27885 1.5636 0 0.5213-0.10448 1.0425-0.31373 1.5289-0.20911 0.48657-0.52283 0.93826-0.90631 1.2858-0.38334 0.38222-0.83656 0.66024-1.3245 0.83392-1.0109 0.38222-2.1263 0.38222-3.1024-0.03473-0.97592-0.41696-1.7777-1.2161-2.196-2.2239-0.20924-0.48643-0.27885-1.0077-0.27885-1.5636 0-0.5213 0.10448-1.0425 0.3486-1.529 0.20911-0.48643 0.52283-0.93813 0.90617-1.2856 0.3486-0.34749 0.80182-0.66024 1.2898-0.83392z" clip-rule="evenodd" fill="#2a2941" fill-rule="evenodd" stroke-width="1.3894"/>
<path d="m18.963 16.902 3.4857-1.4247-0.52283-1.2858-3.4857 1.4247z" clip-rule="evenodd" fill="#2a2941" fill-rule="evenodd" stroke-width="1.3894"/>
<path d="m45.804 35.979 4.8801-2.0501 4.9846 2.6408-3.2418 7.0539-7.7384-2.2934 1.1154-5.4208z" clip-rule="evenodd" fill="#2a2941" fill-rule="evenodd" stroke-width="1.3894"/>
<path d="m39.773 22.427 4.88-2.0849 4.9846 2.6756-3.2418 7.0191-7.808-2.1891 1.1154-5.4206z" clip-rule="evenodd" fill="#2a2941" fill-rule="evenodd" stroke-width="1.3894"/>
<path d="m34.022 8.5971 4.8801-2.0849 4.9846 2.641-3.2418 7.0539-7.8082-2.2239 1.0807-5.4208h0.10448z" clip-rule="evenodd" fill="#2a2941" fill-rule="evenodd" stroke-width="1.3894"/>
<path d="m48.244 32.956 4.8801-2.0848 4.9846 2.6408-3.2418 7.0539-7.8082-2.2239 1.0805-5.4208h0.10462z" clip-rule="evenodd" fill="#a694fe" fill-rule="evenodd" stroke-width="1.3894"/>
<path d="m53.228 29.62-5.9607 2.5019-1.4291 7.0539 9.7253 2.745 4.0434-8.8955zm-3.9738 4.135 3.8692-1.6331 3.5555 1.9111-2.3703 5.1775-5.8561-1.6331z" clip-rule="evenodd" fill="#2a2941" fill-rule="evenodd" stroke-width="1.3894"/>
<path d="m42.144 19.369 4.88-2.0502 4.9846 2.6408-3.2418 7.0193-7.808-2.1891 1.0805-5.4208z" clip-rule="evenodd" fill="#fec34e" fill-rule="evenodd" stroke-width="1.3894"/>
<path d="m47.198 16.068-5.9607 2.5019-1.4291 7.0191 9.7253 2.7799 4.0783-8.8957zm-3.9738 4.1003 3.8692-1.6331 3.5555 1.9111-2.3703 5.1775-5.8212-1.5984z" clip-rule="evenodd" fill="#2a2941" fill-rule="evenodd" stroke-width="1.3894"/>
<path d="m36.531 5.5391 4.88-2.0849 4.9846 2.6756-3.2418 7.054-7.7732-2.2239 1.0805-5.4208z" clip-rule="evenodd" fill="#4c5efd" fill-rule="evenodd" stroke-width="1.3894"/>
<path d="m41.516 2.2382-5.9607 2.5018-1.4291 7.0193 9.7253 2.7798 4.0434-8.8955zm-3.9738 4.135 3.8692-1.6332 3.5555 1.8765-2.3703 5.1775-5.8561-1.6332z" clip-rule="evenodd" fill="#2a2941" fill-rule="evenodd" stroke-width="1.3894"/>
<path d="m30.606 47.307-0.66233-0.69498-2.6841 1.1119v0.973c0.03487 0.27802 0.03487 0.52117 0 0.79919-0.03487 0.06947-0.06961 0.13894-0.13936 0.20855-0.06975 0.06947-0.1395 0.10421-0.2091 0.13894-0.17437 0.06947-0.3486 0.06947-0.52297 0-0.06961-0.03473-0.17423-0.06947-0.2091-0.13894-0.06975-0.06961-0.10462-0.13908-0.1395-0.20855-0.03473-0.10421-0.03473-0.20855 0-0.27802v-0.4517-5.4902c-0.03473-0.17382-0.03473-0.34749 0-0.48643 0.03488-0.13908 0.10462-0.27802 0.20924-0.4171 0.10448-0.13894 0.24398-0.24315 0.41821-0.27788 0.17437-0.06947 0.3486-0.10434 0.52297-0.06961 0.13936 0 0.27885 0.06961 0.41821 0.13908 0.1395 0.06947 0.24398 0.17368 0.3486 0.27802l0.41835 0.41696 3.4857 3.5095c0.2091 0.17382 0.38334 0.38222 0.48796 0.62551 0.06975 0.17382 0.03487 0.34749-0.03487 0.5213-0.06975 0.17368-0.20911 0.27788-0.38334 0.34735-0.10462 0.03487-0.20924 0.03487-0.27899 0-0.10448 0-0.17423-0.03473-0.24398-0.06947-0.10448-0.06947-0.17423-0.13894-0.27885-0.24314l-0.31373-0.27802zm-3.416-0.72972 1.9868-0.79919-2.1263-2.2935z" fill="#4c5efd" stroke-width="1.3894"/>
<path d="m34.823 43.45-1.2199 0.48643 0.76681 1.8764c0.06975 0.20855 0.06975 0.45184 0 0.69498-0.06975 0.17381-0.24398 0.31275-0.41835 0.38222-0.17423 0.06961-0.38334 0.06961-0.55771 0-0.20911-0.10421-0.3486-0.31276-0.45308-0.52117l-2.0217-5.0038c-0.06975-0.1042-0.10462-0.24315-0.10462-0.34749 0-0.13894 0-0.24315 0.06975-0.34749 0.03487-0.1042 0.13936-0.20841 0.24398-0.27788 0.10462-0.06961 0.2091-0.13908 0.3486-0.13908l1.708-0.69498c0.38348-0.17368 0.80169-0.27788 1.22-0.34749 0.27885-0.03473 0.55771-0.03473 0.83656 0.06961 0.27885 0.06947 0.52283 0.24315 0.6972 0.4517 0.2091 0.20841 0.38334 0.48643 0.48796 0.76445 0.1395 0.27802 0.2091 0.59064 0.2091 0.86866 0 0.31276-0.06961 0.62551-0.2091 0.8688-0.3486 0.5559-0.90631 1.0076-1.6035 1.2161zm-1.6034-2.8494-0.90631 0.38222 0.83656 2.0155 0.90631-0.38222c0.27885-0.10434 0.52283-0.24328 0.76681-0.4171 0.17437-0.13894 0.27899-0.31262 0.3486-0.52117 0.06975-0.20855 0.06975-0.4517 0-0.66024-0.03487-0.13894-0.10448-0.24315-0.20911-0.34749-0.10462-0.1042-0.2091-0.17368-0.3486-0.24315-0.45308-0.10434-0.90631-0.03473-1.3245 0.17368z" fill="#4c5efd" stroke-width="1.3894"/>
<path d="m39.25 43.832-2.1263-5.1427c-0.06975-0.20855-0.06975-0.4517 0-0.69498 0.06975-0.17368 0.2091-0.31276 0.41835-0.38222 0.17423-0.06947 0.38334-0.06947 0.55771 0 0.20911 0.1042 0.38334 0.27802 0.45308 0.52116l2.1263 5.1427c0.06975 0.20855 0.06975 0.48657 0 0.69498-0.06975 0.17381-0.24398 0.31276-0.41835 0.38222-0.17423 0.06961-0.38334 0.06961-0.55771 0-0.2091-0.1042-0.38334-0.31262-0.45308-0.52116z" fill="#4c5efd" stroke-width="1.3894"/>
</svg>
