<svg viewBox="0 0 49.64 47.36" xmlns="http://www.w3.org/2000/svg">
<path style="fill:#7856ff" d="m14.41 19.54h6.31c-1.58-0.99-2.17-2.37-2.96-4.93l-2.37-8.78c-1.08-3.95-1.97-5.82-6.31-5.82h-9.07v2.37h1.29c2.66 0 2.96 0.99 3.75 3.95l2.07 7.7c1.08 3.74 2.77 5.51 7.29 5.51zm14.61 0h6.31c4.54 0 6.11-1.78 7.2-5.52l2.07-7.7c0.79-2.96 1.18-3.95 3.75-3.95h1.29v-2.37h-8.98c-4.44 0-5.33 1.78-6.32 5.82l-2.37 8.78c-0.78 2.66-1.38 3.95-2.95 4.94zm-8.29 8.28h8.29v-8.29h-8.29v8.29zm-20.72 19.54h9.07c4.34 0 5.23-1.88 6.31-5.82l2.37-8.78c0.79-2.56 1.38-3.95 2.96-4.93h-6.31c-4.54 0-6.22 1.78-7.3 5.52l-2.07 7.7c-0.79 2.96-1.08 3.95-3.75 3.95h-1.29l0.01 2.36zm40.64 0h8.98v-2.37h-1.29c-2.56 0-2.96-0.99-3.75-3.95l-2.07-7.7c-1.08-3.75-2.66-5.52-7.2-5.52h-6.3c1.58 0.99 2.15 2.27 2.94 4.93l2.37 8.78c0.99 4.05 1.88 5.83 6.32 5.83z"/>
</svg>