<svg viewBox="0 0 24 24" xmlns="http://www.w3.org/2000/svg">
<path d="m5.4619 4.0401c-0.273-0.0050603-0.46618 0.029603-0.67023 0.074386v0.037067h0.03732c0.13043 0.26756 0.36042 0.43986 0.52134 0.67036 0.12372 0.26073 0.24783 0.52108 0.37193 0.78143 0.012651-0.012398 0.025175-0.024669 0.03732-0.037067 0.23088-0.16231 0.33613-0.42215 0.33512-0.81888-0.092603-0.09741-0.10639-0.21911-0.18634-0.33512-0.10601-0.15472-0.31222-0.24213-0.44644-0.37218zm18.017 19.097c0.17572 0.12891 0.2935 0.32879 0.52134 0.40976v-0.03732c-0.11993-0.15206-0.15042-0.36194-0.26048-0.52134-0.16092-0.16092-0.3231-0.32247-0.48402-0.48402-0.47339-0.62811-1.0737-1.1794-1.7123-1.6376-0.50868-0.36573-1.6488-0.85911-1.8613-1.4515-0.012145-0.012651-0.024795-0.025175-0.037446-0.037826 0.36092-0.040482 0.78384-0.17104 1.1169-0.26048 0.55967-0.15004 1.06-0.11107 1.6376-0.26048 0.26098-0.074766 0.52134-0.1494 0.78181-0.22316v-0.1494c-0.2921-0.29982-0.50033-0.69655-0.81863-0.9679-0.83393-0.70945-1.7434-1.4189-2.6804-2.0099-0.51918-0.32816-1.1617-0.54107-1.7124-0.81913-0.18521-0.093362-0.51033-0.14207-0.63291-0.2978-0.28882-0.36889-0.44657-0.83634-0.66973-1.2658-0.46706-0.89984-0.92641-1.8825-1.3405-2.8293-0.28198-0.64544-0.46656-1.282-0.81863-1.8613-1.6903-2.779-3.5101-4.4565-6.3283-6.1052-0.60015-0.35055-1.322-0.48895-2.0847-0.66985-0.40925-0.024669-0.81926-0.049844-1.2285-0.074513-0.24985-0.10437-0.5097-0.41001-0.74437-0.5584-0.93387-0.58978-3.329-1.8729-4.0203-0.18597-0.4367 1.0646 0.65227 2.1034 1.042 2.6431 0.27363 0.37838 0.62343 0.80281 0.81926 1.2283 0.1284 0.27971 0.15029 0.56043 0.26098 0.85633 0.27047 0.72919 0.50552 1.5224 0.85544 2.1964 0.17724 0.34081 0.37244 0.70022 0.5961 1.005 0.13726 0.1871 0.3718 0.26946 0.40862 0.5584-0.22936 0.32171-0.24251 0.8209-0.37142 1.2284-0.58193 1.8346-0.36244 4.1145 0.48402 5.4724 0.25934 0.41659 0.87113 1.3109 1.7118 0.96765 0.73538-0.29957 0.57143-1.2281 0.78181-2.0473 0.047314-0.18609 0.01847-0.32259 0.11158-0.4467v0.037066c0.22366 0.4467 0.44708 0.89339 0.67023 1.34 0.49616 0.79864 1.3763 1.6338 2.1222 2.1967 0.38623 0.29198 0.69073 0.79699 1.1911 0.9679v-0.037826h-0.03732c-0.09741-0.15042-0.24897-0.21354-0.37193-0.33461-0.29147-0.28578-0.61546-0.64076-0.85658-0.96803-0.67858-0.92084-1.2778-1.9289-1.8239-2.9778-0.26098-0.50109-0.48768-1.0538-0.70768-1.5635-0.084633-0.19672-0.083621-0.49388-0.26048-0.59572-0.24087 0.37345-0.59547 0.6758-0.78181 1.1168-0.2978 0.70515-0.33613 1.565-0.44657 2.4568-0.065278 0.02353-0.036307 0.0074639-0.074766 0.037066-0.51868-0.12474-0.70072-0.6586-0.89327-1.1166-0.48718-1.1578-0.57763-3.0224-0.1489-4.3554 0.11095-0.34473 0.61293-1.431 0.40925-1.7496-0.096904-0.31804-0.41621-0.5016-0.59496-0.74462-0.22215-0.30033-0.44303-0.69541-0.59661-1.0424-0.39824-0.90275-0.58446-1.9162-1.0043-2.8289-0.20089-0.43607-0.54031-0.87783-0.81913-1.2658-0.30868-0.42962-0.65442-0.74588-0.89339-1.2658-0.085139-0.18457-0.20089-0.47997-0.074639-0.66985 0.03985-0.12815 0.096778-0.18154 0.22366-0.22341 0.2162-0.16648 0.81698 0.05541 1.042 0.1489 0.59661 0.24783 1.0953 0.48402 1.6009 0.81888 0.24251 0.16092 0.48806 0.47238 0.78118 0.55853h0.33512c0.5245 0.12031 1.1116 0.037573 1.6008 0.18622 0.86543 0.26301 1.6409 0.67213 2.3452 1.1169 2.1454 1.3545 3.8998 3.2832 5.0999 5.5838 0.19305 0.37041 0.2768 0.72387 0.44657 1.1169 0.34296 0.79231 0.77549 1.6074 1.1168 2.3824 0.34043 0.7727 0.67238 1.5529 1.1537 2.1963 0.25301 0.33803 1.2309 0.51944 1.6756 0.70743 0.31146 0.13144 0.82166 0.26883 1.1163 0.44619 0.56397 0.34018 1.1096 0.74475 1.6381 1.1172 0.26415 0.18634 1.0764 0.59446 1.1164 0.93021-1.309-0.034663-2.309 0.08691-3.1639 0.4472-0.24302 0.10209-0.63026 0.10513-0.67023 0.40912 0.13359 0.13992 0.15472 0.34941 0.26098 0.52134 0.20355 0.33044 0.54815 0.77283 0.85595 1.0054 0.33613 0.25365 0.68238 0.525 1.0422 0.74449 0.64076 0.39091 1.3563 0.61394 1.9729 1.0052 0.36485 0.231 0.72577 0.52134 1.0802 0.78181z" fill="#00758f" />
</svg>