<svg viewBox="0 0 48 48" xmlns="http://www.w3.org/2000/svg">
<path d="m24.008 48c-0.64317 0-1.2807-0.16807-1.8443-0.49302l-5.8714-3.4769c-0.87735-0.49077-0.44932-0.66445-0.16023-0.76417 1.1698-0.40898 1.4062-0.50198 2.6545-1.2112 0.1311-0.07507 0.30254-0.04818 0.43699 0.03137l4.5111 2.6768c0.16247 0.08852 0.39442 0.08852 0.54456 0l17.588-10.153c0.16247-0.093 0.26892-0.28124 0.26892-0.47509v-20.295c0-0.20281-0.10533-0.38321-0.27228-0.48405l-17.581-10.145c-0.16247-0.096362-0.37873-0.096362-0.5412 0l-17.578 10.144c-0.17032 0.09636-0.279 0.28572-0.279 0.47957v20.297c0 0.19384 0.10533 0.37873 0.2734 0.47061l4.817 2.7822c2.6152 1.3076 4.2131-0.23306 4.2131-1.7827v-20.031c0-0.28572 0.2241-0.50646 0.51095-0.50646h2.2276c0.27788 0 0.50647 0.21962 0.50647 0.50646v20.041c0 3.487-1.9015 5.4904-5.2081 5.4904-1.0174 0-1.8186 0-4.0551-1.1003l-4.6142-2.6589c-1.1407-0.66109-1.8455-1.8947-1.8455-3.2102v-20.297c0-1.3211 0.70479-2.5536 1.8443-3.2057l17.608-10.157c1.1138-0.62971 2.5928-0.62971 3.6988 0l17.585 10.162c1.1339 0.65548 1.8432 1.8847 1.8432 3.2057v20.297c0 1.3166-0.70928 2.5446-1.8443 3.2057l-17.585 10.156c-0.56361 0.32606-1.2023 0.49302-1.8533 0.49302" fill="#21a366" stroke-width="1.1205"/>
<path d="m29.441 34.014c-7.6956 0-9.3091-3.5329-9.3091-6.4955 0-0.28124 0.22746-0.50646 0.50983-0.50646h2.2724c0.25099 0 0.46277 0.18264 0.50198 0.43027 0.34287 2.315 1.3648 3.4825 6.0182 3.4825 3.7066 0 5.2832-0.83701 5.2832-2.8035 0-1.1317-0.44932-1.9721-6.2076-2.5357-4.817-0.47509-7.7931-1.5362-7.7931-5.3885 0-3.5486 2.994-5.6619 8.0082-5.6619 5.6316 0 8.4228 1.9553 8.7746 6.1549 0.01345 0.14566-0.03922 0.28573-0.1367 0.39218-0.09636 0.10084-0.23306 0.16247-0.37425 0.16247h-2.2847c-0.23755 0-0.44484-0.16695-0.49302-0.39666-0.55016-2.4348-1.8802-3.2136-5.4949-3.2136-4.0461 0-4.5167 1.4085-4.5167 2.4651 0 1.2807 0.55465 1.655 6.0137 2.3777 5.4064 0.71712 7.9735 1.73 7.9735 5.5297 0 3.8299-3.1968 6.0272-8.7701 6.0272" fill="#21a366" stroke-width="1.1205"/>
</svg>