<svg viewBox="0 0 1e3 1e3" xmlns="http://www.w3.org/2000/svg">
<path d="m375.01 498.86-122.39 87.715 58.445 59.695 123.55-96.402-59.602-51.008m322.55-231.17-300.21 215.15 59.719 49.5 298.82-233.1-58.336-31.555m-163.86 20.789-350.87 226.88 51.504 52.586 353.07-246.36-53.699-33.109m92.133-59.57-75.863 49.059 53.637 32.312 75.398-52.613-53.172-28.758m-44.883 238.39-249.1 200.2 66.926 68.301 249.25-220.43-67.07-48.066m195.34-157.02-176.53 141.89 66.914 46.688 173.91-153.81-64.293-34.77m-414.44 0-240.92 141.89 45.754 46.711 243.69-153.84-48.52-34.77m501.25 46.965-440.43 402.98 77.316 78.934 434.32-443.4-71.211-38.516m-302.87-163.82-179.64 105.82 48.613 33.918 179.7-113.42-48.664-26.32m-60.242-32.586 44.703 24.195-438.15 252.46-40.875-41.727z" fill="#54aced"/>
</svg>