<svg viewBox="0 0 260 260" xmlns="http://www.w3.org/2000/svg">
<g fill="#CF272D">
<path d="m127.86 222.3c-52.005 0-94.163-42.158-94.163-94.162 0-52.005 42.158-94.163 94.163-94.163 52.004 0 94.162 42.158 94.162 94.163 0 52.004-42.158 94.162-94.162 94.162zm0-222.02c-70.615 0-127.86 57.245-127.86 127.86 0 70.615 57.245 127.86 127.86 127.86 70.615 0 127.86-57.244 127.86-127.86 0-70.615-57.244-127.86-127.86-127.86z"/>
<path d="m133.12 96.297c0-14.682 11.903-26.586 26.586-26.586 14.683 0 26.586 11.903 26.586 26.586 0 14.683-11.902 26.586-26.586 26.586-14.682 0-26.586-11.902-26.586-26.586"/>
<path d="m133.12 159.98c0-14.682 11.903-26.586 26.586-26.586 14.683 0 26.586 11.903 26.586 26.586 0 14.683-11.902 26.586-26.586 26.586-14.682 0-26.586-11.902-26.586-26.586"/>
<path d="m69.431 159.98c0-14.682 11.903-26.586 26.586-26.586 14.683 0 26.586 11.903 26.586 26.586 0 14.683-11.902 26.586-26.586 26.586-14.682 0-26.586-11.902-26.586-26.586"/>
<path d="m69.431 96.298c0-14.683 11.903-26.586 26.586-26.586 14.683 0 26.586 11.902 26.586 26.586 0 14.683-11.902 26.586-26.586 26.586-14.682 0-26.586-11.902-26.586-26.586"/>
</g>
</svg>