<svg viewBox="0 0 50 50" xmlns="http://www.w3.org/2000/svg">
<path d="m35.308 46.143h-20.616c-0.92876 0-1.6817-0.75291-1.6817-1.6817s0.75291-1.6817 1.6817-1.6817h20.616c0.92876 0 1.6817 0.75291 1.6817 1.6817s-0.75292 1.6817-1.6817 1.6817z" fill="#656766"/>
<path d="m26.682 44.281v-10.128c0-0.92877-0.7529-1.6817-1.6817-1.6817s-1.6817 0.7529-1.6817 1.6817v10.128h3.3633z" fill="#656766"/>
<path d="m48.176 32.286v-23.436c0-2.0593-1.6694-3.7288-3.7288-3.7288h-18.929c-1.1866 0-2.3024-0.56477-3.0049-1.521l-0.79241-1.0785c-0.70256-0.95626-1.8183-1.521-3.0049-1.521h-13.163c-2.0593 0-3.7288 1.6694-3.7288 3.7288v27.557c0 2.0593 1.6694 3.7288 3.7288 3.7288h38.895c2.0593 0 3.7288-1.6694 3.7288-3.7288z" fill="#FFC966"/>
<g fill="#fff">
<path d="m15.038 18.384c-0.12731 0.10468-0.19144 0.24425-0.19144 0.41776 0 0.17352 0.07827 0.3112 0.23387 0.41305 0.15654 0.10279 0.51773 0.2235 1.0836 0.36307s1.0053 0.34798 1.3174 0.62617c0.31309 0.27914 0.46963 0.68559 0.46963 1.2203s-0.20087 0.96755-0.60166 1.3004c-0.40079 0.33289-0.92795 0.49887-1.5815 0.49887-0.94398 0-1.7946-0.34987-2.5509-1.0487l0.79309-0.97227c0.64315 0.56299 1.2373 0.84402 1.7833 0.84402 0.24425 0 0.43568-0.05281 0.57525-0.15749 0.13957-0.10562 0.20935-0.24802 0.20935-0.42719 0-0.17823-0.0745-0.32063-0.22161-0.42625-0.14806-0.10468-0.44134-0.21124-0.87891-0.31969-0.69407-0.16503-1.2014-0.3791-1.5221-0.64409-0.32158-0.26405-0.48189-0.67899-0.48189-1.2448s0.20275-1.0024 0.6092-1.3089c0.40645-0.30743 0.9138-0.46115 1.523-0.46115 0.39796 0 0.79592 0.06884 1.1939 0.20464 0.39796 0.13674 0.745 0.33006 1.0402 0.57997l-0.67333 0.97227c-0.51773-0.3923-1.0524-0.58846-1.6041-0.58846-0.22159 0-0.39605 0.05281-0.52431 0.15843z"/>
<path d="m24.032 17.193v1.1684h-2.7631v1.2882h2.6273v1.1684h-2.6273v2.3368h-1.3306v-5.9619h4.0937z"/>
<path d="m28.535 18.345v4.8104h-1.3306v-4.8104h-1.689v-1.1514h4.7076v1.1514h-1.688z"/>
<path d="m36.155 17.726c0.41776 0.35552 0.62712 0.90154 0.62712 1.638s-0.21501 1.275-0.64409 1.6164c-0.42908 0.34044-1.0845 0.51113-1.9653 0.51113h-0.79404v1.6635h-1.3297v-5.9619h2.1058c0.91569 0 1.5824 0.17729 2.0002 0.53282zm-0.97605 2.3453c0.15843-0.17918 0.23859-0.4404 0.23859-0.78461 0-0.34327-0.10374-0.58846-0.3112-0.73368-0.20747-0.14428-0.52999-0.2169-0.9685-0.2169h-0.75914v2.004h0.89589c0.44322 0 0.74499-0.08959 0.90436-0.26876z"/>
</g>
<circle cx="25" cy="44.461" r="4.5386" fill="#EC6E62"/>
</svg>