<svg viewBox="0 302.1 170 170" xmlns="http://www.w3.org/2000/svg">
<path d="m137.46 338.59c-0.093-0.83718-0.83717-1.2092-1.3953-1.2092s-12.744-0.93019-12.744-0.93019-8.4647-8.4647-9.4879-9.3019c-0.93018-0.93018-2.6975-0.65113-3.4417-0.46509-0.093 0-1.8604 0.55811-4.7439 1.4883-2.8836-8.2787-7.8136-15.813-16.65-15.813h-0.83717c-2.4185-3.1626-5.5811-4.6509-8.1856-4.6509-20.464 0-30.324 25.58-33.394 38.603-7.9996 2.5115-13.674 4.1858-14.325 4.4649-4.4649 1.3953-4.5579 1.4883-5.116 5.6741-0.46509 3.1626-12.092 93.112-12.092 93.112l90.507 16.929 49.114-10.604c0.093-0.18604-17.115-116.46-17.208-117.3zm-36.835-9.1158c-2.2324 0.65113-4.93 1.4883-7.6275 2.4185v-1.6743c0-5.023-0.65113-9.1158-1.8604-12.371 4.6509 0.55811 7.5345 5.6741 9.4879 11.627zm-15.162-10.604c1.2092 3.1626 2.0464 7.6275 2.0464 13.767v0.93019c-5.023 1.5813-10.325 3.1626-15.813 4.93 3.0696-11.72 8.9298-17.488 13.767-19.627zm-5.9532-5.7672c0.93019 0 1.8604 0.37207 2.6045 0.93019-6.6043 3.0696-13.581 10.79-16.464 26.417-4.3719 1.3953-8.5577 2.6045-12.558 3.9068 3.3487-11.906 11.72-31.254 26.417-31.254z" fill="#95bf47"/>
<path d="m136.07 337.2c-0.55811 0-12.744-0.93018-12.744-0.93018s-8.4647-8.4647-9.4879-9.3019c-0.37206-0.37207-0.83717-0.55811-1.2092-0.55811l-6.7904 140.09 49.114-10.604s-17.208-116.46-17.301-117.3c-0.37207-0.83717-1.0232-1.2092-1.5813-1.3953z" fill="#5e8e3e"/>
<path d="m89 364.36-5.9532 17.953s-5.3951-2.8836-11.813-2.8836c-9.5809 0-10.046 6.0462-10.046 7.5345 0 8.1856 21.394 11.348 21.394 30.603 0 15.162-9.5809 24.929-22.511 24.929-15.627 0-23.441-9.6739-23.441-9.6739l4.1858-13.767s8.1856 7.0694 15.069 7.0694c4.5579 0 6.4183-3.5347 6.4183-6.1392 0-10.697-17.488-11.162-17.488-28.836 0-14.79 10.604-29.115 32.091-29.115 7.9996-0.093 12.092 2.3255 12.092 2.3255z" fill="#fff"/>
</svg>
