<svg viewBox="0 302.1 170 170" xmlns="http://www.w3.org/2000/svg">
<path d="m141.16 335.17c-0.0996-0.89623-0.89622-1.2945-1.4937-1.2945s-13.643-0.9958-13.643-0.9958-9.0618-9.0618-10.157-9.958c-0.99579-0.99579-2.8878-0.69706-3.6845-0.4979-0.0996 0-1.9916 0.59748-5.0785 1.5933-3.087-8.8626-8.3647-16.928-17.824-16.928h-0.89622c-2.5891-3.3857-5.9748-4.979-8.763-4.979-21.907 0-32.463 27.384-35.749 41.326-8.5639 2.6886-14.638 4.481-15.335 4.7798-4.7798 1.4937-4.8794 1.5933-5.4769 6.0743-0.4979 3.3857-12.945 99.68-12.945 99.68l96.891 18.123 52.578-11.352c0.0996-0.19917-18.322-124.67-18.422-125.57zm-39.433-9.7588c-2.3899 0.69706-5.2777 1.5933-8.1655 2.5891v-1.7924c0-5.3773-0.69706-9.7588-1.9916-13.244 4.979 0.59748 8.0659 6.0743 10.157 12.447zm-16.231-11.352c1.2945 3.3857 2.1907 8.1655 2.1907 14.738v0.9958c-5.3773 1.6928-11.053 3.3857-16.928 5.2777 3.2861-12.547 9.5597-18.722 14.738-21.011zm-6.3731-6.174c0.9958 0 1.9916 0.39832 2.7882 0.99581-7.0701 3.2861-14.539 11.551-17.625 28.28-4.6803 1.4937-9.1613 2.7882-13.444 4.1824 3.5849-12.746 12.547-33.459 28.28-33.459z" fill="#95bf47" stroke-width="1.0705"/>
<path d="m139.67 333.68c-0.59748 0-13.643-0.99579-13.643-0.99579s-9.0618-9.0618-10.157-9.958c-0.39831-0.39832-0.89622-0.59748-1.2945-0.59748l-7.2694 149.97 52.578-11.352s-18.422-124.67-18.521-125.57c-0.39832-0.89622-1.0954-1.2945-1.6928-1.4937z" fill="#5e8e3e" stroke-width="1.0705"/>
<path d="m89.282 362.76-6.3731 19.219s-5.7756-3.087-12.646-3.087c-10.257 0-10.755 6.4727-10.755 8.0659 0 8.763 22.903 12.148 22.903 32.762 0 16.231-10.257 26.687-24.099 26.687-16.729 0-25.094-10.356-25.094-10.356l4.481-14.738s8.763 7.568 16.132 7.568c4.8794 0 6.871-3.784 6.871-6.5722 0-11.452-18.722-11.949-18.722-30.87 0-15.833 11.352-31.169 34.355-31.169 8.5639-0.0996 12.945 2.4895 12.945 2.4895z" fill="#fff" stroke-width="1.0705"/>
</svg>
