<svg viewBox="0 0 43.361 43.469" xmlns="http://www.w3.org/2000/svg">
<g transform="translate(.002027 -.53125)" fill="#29b5e8">
<path d="m37.262 33.66-9.1758-5.3008c-1.2891-0.74219-2.9375-0.30078-3.6836 0.98828-0.28906 0.50781-0.40234 1.0664-0.34766 1.6094v10.359c0 1.4805 1.2031 2.6836 2.6875 2.6836 1.4805 0 2.6836-1.2031 2.6836-2.6836v-5.957l5.1406 2.9688c1.2891 0.74609 2.9414 0.30078 3.6836-0.98828 0.7461-1.2891 0.30469-2.9375-0.98828-3.6797"/>
<path d="m14.441 22.301c0.01563-0.95703-0.48828-1.8477-1.3164-2.3281l-9.1758-5.2969c-0.39844-0.23047-0.85547-0.35156-1.3125-0.35156-0.94141 0-1.8164 0.50391-2.2852 1.3164-0.72656 1.2578-0.29297 2.8711 0.96484 3.5977l5.2891 3.0508-5.2891 3.0547c-0.60938 0.35156-1.0469 0.91797-1.2266 1.5977-0.18359 0.67969-0.089844 1.3906 0.26172 2 0.46875 0.8125 1.3438 1.3164 2.2812 1.3164 0.46094 0 0.91797-0.12109 1.3164-0.35156l9.1758-5.2969c0.82031-0.47656 1.3242-1.3594 1.3164-2.3086"/>
<path d="m6.0313 10.922 9.1758 5.2969c1.0703 0.62109 2.3906 0.41797 3.2344-0.40625 0.53516-0.49219 0.86719-1.1953 0.86719-1.9766v-10.617c0-1.4844-1.2031-2.6875-2.6836-2.6875-1.4844 0-2.6875 1.2031-2.6875 2.6875v6.043l-5.2109-3.0078c-1.2891-0.74609-2.9375-0.30469-3.6836 0.98438-0.74609 1.2891-0.30078 2.9375 0.98828 3.6836"/>
<path d="m26.664 22.73c0 0.20312-0.11719 0.48438-0.26172 0.63281l-3.6367 3.6367c-0.14453 0.14453-0.42969 0.26172-0.63281 0.26172h-0.92578c-0.20312 0-0.48828-0.11719-0.63281-0.26172l-3.6406-3.6367c-0.14453-0.14844-0.26172-0.42969-0.26172-0.63281v-0.92578c0-0.20703 0.11719-0.48828 0.26172-0.63281l3.6406-3.6406c0.14453-0.14453 0.42969-0.26172 0.63281-0.26172h0.92578c0.20313 0 0.48828 0.11719 0.63281 0.26172l3.6367 3.6406c0.14453 0.14453 0.26172 0.42578 0.26172 0.63281zm-3.2461-0.44531v-0.03906c0-0.14844-0.08594-0.35547-0.19141-0.46484l-1.0742-1.0703c-0.10547-0.10938-0.3125-0.19531-0.46484-0.19531h-0.03906c-0.14844 0-0.35547 0.08594-0.46484 0.19531l-1.0703 1.0703c-0.10547 0.10547-0.19141 0.3125-0.19141 0.46484v0.03906c0 0.15234 0.08594 0.35938 0.19141 0.46484l1.0703 1.0742c0.10938 0.10547 0.31641 0.19141 0.46484 0.19141h0.03906c0.15234 0 0.35938-0.08594 0.46484-0.19141l1.0742-1.0742c0.10547-0.10547 0.19141-0.3125 0.19141-0.46484z"/>
<path d="m28.086 16.219 9.1758-5.2969c1.2891-0.74219 1.7344-2.3945 0.98828-3.6836-0.74609-1.2891-2.3945-1.7305-3.6836-0.98438l-5.1406 2.9688v-6.0039c0-1.4844-1.2031-2.6875-2.6836-2.6875-1.4844 0-2.6875 1.2031-2.6875 2.6875v10.406c-0.05078 0.53906 0.05469 1.1016 0.34766 1.6094 0.74609 1.2891 2.3945 1.7305 3.6836 0.98438"/>
<path d="m17.047 28.047c-0.60938-0.11719-1.2617-0.01953-1.8398 0.3125l-9.1758 5.3008c-1.2891 0.74219-1.7344 2.3906-0.98828 3.6797 0.74609 1.293 2.3945 1.7344 3.6836 0.98828l5.2109-3.0078v5.9961c0 1.4805 1.2031 2.6836 2.6875 2.6836 1.4805 0 2.6836-1.2031 2.6836-2.6836v-10.617c0-1.3398-0.98047-2.4492-2.2617-2.6523"/>
<path d="m42.996 15.609c-0.74219-1.293-2.3945-1.7344-3.6836-0.98828l-9.1758 5.2969c-0.87891 0.50781-1.3633 1.4375-1.3477 2.3828-0.0078 0.94141 0.47656 1.8594 1.3477 2.3594l9.1758 5.3008c1.2891 0.74219 2.9375 0.30078 3.6836-0.98828 0.74609-1.2891 0.30078-2.9375-0.98828-3.6836l-5.1953-3 5.1953-3c1.293-0.74219 1.7344-2.3906 0.98828-3.6797"/>
</g>
</svg>