<svg viewBox="0 0 19.931 18.137" xmlns="http://www.w3.org/2000/svg">
<path d="m8.2916 16.174a4.59 4.59 0 0 1-6.37 1.15 4.63 4.63 0 0 1 2.49-8.38v1.43a3.17 3.17 0 0 0-2.36 1.36 3.13 3.13 0 0 0 0.78 4.35 3.11 3.11 0 0 0 4.31-0.84 3.33 3.33 0 0 0 0.56-1.44v-1h5.58l0.07-0.11a1.88 1.88 0 1 1 0.67 2.59 1.77 1.77 0 0 1-0.83-1h-4.07a5 5 0 0 1-0.83 1.89m7.28-7.14a4.55 4.55 0 1 1-1.12 9 4.63 4.63 0 0 1-3.43-2.21l1.24-0.65a3.22 3.22 0 0 0 2.32 1.45 3.0531 3.0531 0 1 0 0.75-6.06 3.39 3.39 0 0 0-1.53 0.18l-0.85 0.44-2.58-4.81h-0.22a1.8811 1.8811 0 1 1 0.13-3.76 1.93 1.93 0 0 1 1.85 1.95 1.88 1.88 0 0 1-0.46 1.15l1.9 3.51a4.75 4.75 0 0 1 2-0.19m-9.49-2.72a4.5439 4.5439 0 1 1 8.37-3.54 4.61 4.61 0 0 1-0.2 4.07l-1.24-0.67a3.17 3.17 0 0 0 0.09-2.73 3.05 3.05 0 1 0-5.62 2.33 3.21 3.21 0 0 0 1.35 1.51l0.39 0.21-3.07 5a1.09 1.09 0 0 1 0.1 0.19 1.88 1.88 0 1 1-2.56-0.83 1.77 1.77 0 0 1 1.23-0.17l2.31-3.77a4.41 4.41 0 0 1-1.15-1.6z"/>
</svg>